<?xml version="1.0" standalone="no"?>
<!DOCTYPE svg PUBLIC "-//W3C//DTD SVG 20010904//EN"
 "http://www.w3.org/TR/2001/REC-SVG-20010904/DTD/svg10.dtd">
<svg version="1.0" xmlns="http://www.w3.org/2000/svg"
 width="881.000000pt" height="881.000000pt" viewBox="0 0 881.000000 881.000000"
 preserveAspectRatio="xMidYMid meet">
<metadata>
Created by potrace 1.14, written by Peter Selinger 2001-2017
</metadata>
<g transform="translate(0.000000,881.000000) scale(0.100000,-0.100000)"
fill="#000000" stroke="none">
<path d="M3070 8419 c-709 -85 -1327 -376 -1765 -830 -390 -406 -590 -890
-579 -1404 3 -111 6 -149 21 -245 12 -74 11 -74 -96 -176 -192 -183 -336 -376
-450 -605 -102 -205 -163 -408 -190 -629 -9 -79 -7 -380 4 -440 24 -138 36
-200 45 -230 6 -19 13 -42 15 -50 31 -132 150 -384 258 -545 153 -228 381
-458 612 -616 28 -19 52 -37 55 -40 16 -19 234 -141 345 -194 212 -101 504
-202 658 -229 15 -3 35 -7 45 -10 9 -3 31 -8 47 -11 17 -2 55 -9 85 -15 88
-15 196 -28 310 -35 86 -6 407 -6 460 -1 19 2 69 7 110 11 41 3 82 8 90 10 8
2 40 7 70 10 30 4 96 16 145 27 50 11 106 22 125 25 19 3 36 6 37 7 2 2 38
-31 80 -72 321 -309 752 -545 1228 -672 140 -37 335 -76 423 -85 21 -2 73 -7
117 -12 102 -10 484 -10 595 0 248 24 507 76 702 141 l68 23 84 -47 c46 -26
90 -50 98 -53 7 -4 20 -11 28 -17 17 -11 404 -232 465 -265 22 -12 126 -70
230 -130 105 -59 273 -155 375 -213 102 -57 214 -121 250 -142 36 -20 85 -49
110 -62 25 -14 92 -52 150 -85 172 -98 218 -123 228 -123 6 0 17 18 26 40 l16
40 -41 37 c-193 174 -512 851 -774 1640 l-57 173 51 65 c342 435 485 975 396
1495 -29 167 -90 361 -156 492 -16 32 -29 61 -29 65 0 4 19 28 43 53 206 214
401 541 477 795 23 78 51 190 56 225 3 19 7 41 9 48 17 50 24 322 12 463 -33
398 -245 849 -546 1162 -36 37 -68 71 -71 75 -18 26 -208 183 -303 250 -244
174 -479 291 -789 396 -95 32 -279 82 -338 92 -14 2 -34 6 -46 9 -12 3 -39 7
-60 10 -21 4 -50 8 -64 11 -14 2 -50 6 -80 10 -30 3 -82 9 -115 14 -63 9 -591
6 -635 -3 -14 -3 -52 -8 -85 -12 -33 -4 -80 -10 -105 -15 -25 -5 -65 -11 -90
-15 -25 -4 -96 -20 -158 -36 -62 -16 -120 -29 -128 -29 -7 0 -45 20 -82 44
-162 104 -401 216 -607 285 -192 64 -304 93 -455 117 -25 4 -49 8 -55 10 -21
4 -87 14 -132 19 -27 3 -66 8 -88 11 -22 3 -150 7 -285 8 -190 2 -280 -1 -400
-15z"/>
</g>
</svg>
