<?xml version="1.0" standalone="no"?>
<!DOCTYPE svg PUBLIC "-//W3C//DTD SVG 20010904//EN"
 "http://www.w3.org/TR/2001/REC-SVG-20010904/DTD/svg10.dtd">
<svg version="1.0" xmlns="http://www.w3.org/2000/svg"
 width="936.000000pt" height="936.000000pt" viewBox="0 0 936.000000 936.000000"
 preserveAspectRatio="xMidYMid meet">
<metadata>
Created by potrace 1.14, written by Peter Selinger 2001-2017
</metadata>
<g transform="translate(0.000000,936.000000) scale(0.100000,-0.100000)"
fill="#000000" stroke="none">
<path d="M3249 8466 c-2 -2 -40 -6 -84 -10 -94 -7 -147 -13 -235 -27 -110 -17
-125 -20 -140 -24 -8 -2 -30 -7 -47 -10 -42 -7 -165 -37 -278 -69 -208 -58
-515 -189 -672 -289 -24 -15 -45 -27 -48 -27 -9 0 -179 -120 -269 -190 -109
-85 -245 -219 -339 -335 -214 -265 -330 -515 -392 -845 -12 -59 -14 -371 -4
-430 24 -142 24 -142 -18 -170 -21 -14 -92 -79 -159 -145 -126 -125 -252 -281
-321 -401 -93 -159 -177 -367 -203 -500 -6 -33 -13 -69 -16 -80 -16 -79 -21
-170 -19 -310 1 -89 4 -165 7 -170 3 -5 9 -31 12 -59 16 -122 84 -326 158
-470 96 -188 203 -332 377 -505 241 -240 501 -412 856 -567 147 -64 538 -178
677 -198 24 -3 50 -8 58 -10 8 -2 38 -6 65 -9 28 -3 68 -8 90 -12 170 -24 452
-33 655 -21 115 7 282 24 310 32 8 2 37 6 64 10 49 6 176 31 207 40 9 3 51
-26 110 -77 208 -183 446 -330 730 -451 176 -75 425 -155 569 -183 14 -2 48
-9 76 -15 28 -5 64 -12 80 -14 16 -3 38 -7 49 -9 11 -3 47 -8 80 -12 33 -3 62
-8 65 -9 14 -8 257 -20 420 -19 176 0 377 9 424 19 11 2 41 7 66 10 153 18
458 86 579 129 24 9 52 16 63 16 10 0 89 -34 175 -75 85 -41 157 -75 158 -75
2 0 74 -34 161 -76 88 -42 195 -93 239 -114 162 -76 276 -130 367 -174 51 -24
141 -67 201 -95 59 -28 155 -74 215 -102 59 -28 145 -69 192 -91 47 -22 130
-62 185 -88 55 -26 143 -68 195 -92 52 -25 157 -76 233 -113 76 -37 142 -63
147 -59 9 11 33 84 28 89 -1 1 -32 16 -68 33 -270 123 -654 576 -940 1107
-105 195 -320 653 -320 681 0 5 22 34 48 66 214 255 343 554 387 899 13 98 6
356 -10 419 -2 8 -7 31 -10 50 -19 116 -77 287 -140 412 -25 51 -45 92 -45 93
0 0 33 34 73 75 293 300 476 658 525 1025 4 28 7 124 7 215 -1 188 -6 237 -46
395 -143 560 -624 1074 -1284 1370 -104 47 -320 129 -365 140 -8 2 -76 20
-150 39 -125 33 -236 56 -335 71 -22 3 -53 7 -70 10 -126 19 -272 29 -445 29
-154 0 -384 -9 -441 -19 -13 -2 -46 -6 -74 -10 -87 -11 -267 -43 -352 -63 -90
-21 -78 -24 -188 38 -118 66 -262 134 -390 183 -129 49 -362 121 -435 134 -14
2 -42 8 -63 14 -54 14 -263 48 -343 55 -38 3 -80 8 -94 11 -28 5 -525 14 -531
9z"/>
</g>
</svg>
